<?xml version="1.0" encoding="utf-8"?>
<!-- Generator: Adobe Illustrator 21.1.0, SVG Export Plug-In . SVG Version: 6.00 Build 0)  -->
<svg version="1.1" id="Layer_1" xmlns="http://www.w3.org/2000/svg" xmlns:xlink="http://www.w3.org/1999/xlink" x="0px" y="0px"
	 viewBox="0 0 20 20" style="enable-background:new 0 0 20 20;" xml:space="preserve">
<style type="text/css">
	.st0{fill:url(#SVGID_1_);}
</style>
<linearGradient id="SVGID_1_" gradientUnits="userSpaceOnUse" x1="0" y1="10" x2="20" y2="10">
	<stop  offset="0" style="stop-color:#E53935"/>
	<stop  offset="1" style="stop-color:#F85032"/>
</linearGradient>
<path class="st0" d="M11,14v2h1c0.6,0,1,0.4,1,1h7v2h-7c0,0.6-0.4,1-1,1H8c-0.6,0-1-0.4-1-1H0v-2h7c0-0.6,0.4-1,1-1h1v-2H3v-1.5
	C3,10.6,6.1,9,10,9s7,1.6,7,3.5V14H11 M10,0c1.9,0,3.5,1.6,3.5,3.5S11.9,7,10,7S6.5,5.4,6.5,3.5S8.1,0,10,0z"/>
</svg>
