<?xml version="1.0" encoding="utf-8"?>
<!-- Generator: Adobe Illustrator 21.1.0, SVG Export Plug-In . SVG Version: 6.00 Build 0)  -->
<svg version="1.1" id="Layer_1" xmlns="http://www.w3.org/2000/svg" xmlns:xlink="http://www.w3.org/1999/xlink" x="0px" y="0px"
	 viewBox="0 0 480.3 204.5" style="enable-background:new 0 0 480.3 204.5;" xml:space="preserve">
<style type="text/css">
	.st0{fill:url(#SVGID_1_);}
</style>
<title>idk-logo-white</title>
<linearGradient id="SVGID_1_" gradientUnits="userSpaceOnUse" x1="-2.098083e-05" y1="102.24" x2="480.3053" y2="102.24">
	<stop  offset="0" style="stop-color:#F85032"/>
	<stop  offset="1" style="stop-color:#E53935"/>
</linearGradient>
<path class="st0" d="M54.1,15.7c1.3,3.4,1.9,7.9,1.9,13.4v169c-3.6,0.9-7.3,1.5-11,1.9c-4.9,0.6-9.9,1-14.9,1
	c-4.4,0.1-8.7-0.3-13-1.1c-3.4-0.6-6.6-2-9.4-4c-2.7-2.1-4.7-4.8-5.8-8C0.6,184.5,0,180,0,174.5V5.5c2.3-0.4,6.1-1,11.2-1.8
	C16.1,3,21,2.6,25.9,2.6c4.4-0.1,8.7,0.3,13,1.1c3.4,0.6,6.6,2,9.4,4C51,9.8,53,12.5,54.1,15.7z M270.7,56.6c5.3,12.8,8,27.9,8,45.4
	c0,17.1-2.6,32-7.7,44.6c-4.8,12.2-12.3,23.1-21.9,32c-9.8,8.8-21.5,15.4-34.1,19.4c-13.2,4.3-27.8,6.4-43.8,6.4
	c-3.7,0-7.8-0.1-12.5-0.3c-4.7-0.2-9.6-0.6-14.6-1.3c-5-0.6-10-1.4-15-2.4c-4.8-0.9-9.4-2.2-13.9-4c-11.7-4.5-17.6-12.3-17.6-23.4
	V23.7c0-4.5,1.2-7.9,3.7-10.4c2.9-2.7,6.3-4.7,10.1-5.9c9.5-3,19.2-5,29.1-5.9C150.7,0.5,159.9,0,168,0c16.6,0,31.7,2,45.3,6.1
	c12.8,3.7,24.7,10.1,34.9,18.7C258.1,33.5,265.8,44.4,270.7,56.6z M221.1,103c0-19.2-4.5-33.7-13.4-43.4c-9-9.7-20.9-14.6-35.8-14.6
	c-3,0-6,0.1-9.1,0.3c-3.1,0.2-6.2,0.6-9.4,1v111.3c2.4,0.5,5.2,0.8,8.6,1.2s6.6,0.5,9.6,0.5c6.8,0.1,13.6-1,20-3.2
	c5.9-2,11.3-5.4,15.7-9.9c4.7-5,8.2-10.9,10.2-17.4C219.9,121.7,221.1,113.1,221.1,103z M466.7,158.1c-5.2-5.5-10.7-11.4-16.3-17.4
	s-11.4-12.3-17.3-18.7c-5.9-6.4-11.5-12.6-16.8-18.6l40-40c6.2-6.2,10.7-11.7,13.4-16.6c2.7-4.8,4.2-10.2,4.2-15.7
	c0-7.5-3.1-13.9-9.4-19.4c-6.3-5.4-16.7-8.2-31.2-8.2L366.7,80V29.1c0-5.5-0.6-10-1.9-13.4c-1.1-3.2-3.1-5.9-5.8-8
	c-2.8-2-6-3.4-9.4-4c-4.3-0.8-8.6-1.2-13-1.1c-4.9,0-9.8,0.4-14.7,1.2c-5.1,0.8-8.9,1.3-11.2,1.8v169c0,5.5,0.6,10,1.9,13.4
	c1.1,3.2,3.1,5.9,5.8,8c2.8,2,6,3.4,9.4,4c4.3,0.8,8.6,1.2,13,1.1c5,0,10-0.4,15-1c3.8-0.4,7.5-1,11.2-1.9v-70.8l45.1,52.5
	c4.8,5.7,10.2,10.9,16,15.5c5.5,4.4,12.7,6.6,21.4,6.6c3.9,0,7.8-0.6,11.5-1.9c3.6-1.3,6.9-3.2,9.8-5.8c2.9-2.6,5.2-5.7,6.9-9.3
	c1.8-3.9,2.6-8.2,2.6-12.5C476.5,168.4,471.9,163.6,466.7,158.1z"/>
</svg>
