<?xml version="1.0" encoding="utf-8"?>
<!-- Generator: Adobe Illustrator 21.1.0, SVG Export Plug-In . SVG Version: 6.00 Build 0)  -->
<svg version="1.1" id="Layer_1" xmlns="http://www.w3.org/2000/svg" xmlns:xlink="http://www.w3.org/1999/xlink" x="0px" y="0px"
	 viewBox="0 0 480.3 204.5" style="enable-background:new 0 0 480.3 204.5;" xml:space="preserve">
<style type="text/css">
	.st0{fill:#9B9B9B;}
</style>
<title>idk-logo-white</title>
<path class="st0" d="M48.3,7.7c-2.8-2-6-3.4-9.4-4c-4.3-0.8-8.6-1.2-13-1.1C21,2.6,16.1,3,11.2,3.7C6.1,4.5,2.3,5.1,0,5.5v169
	c0,5.5,0.6,10,1.9,13.4c1.1,3.2,3.1,5.9,5.8,8c2.8,2,6,3.4,9.4,4c4.3,0.8,8.6,1.2,13,1.1c5,0,9.9-0.4,14.9-1c3.7-0.4,7.4-1.1,11-1.9
	v-169c0-5.5-0.6-10-1.9-13.4C53,12.5,51,9.8,48.3,7.7z"/>
<path class="st0" d="M248.2,24.8c-10.2-8.7-22-15-34.9-18.7C199.7,2,184.6,0,168,0c-8.1,0-17.3,0.5-27.5,1.4
	c-9.9,0.9-19.7,2.9-29.1,5.9c-3.8,1.2-7.2,3.2-10.1,5.9c-2.5,2.5-3.7,5.9-3.7,10.4V173c0,11.1,5.9,18.9,17.6,23.4
	c4.5,1.8,9.2,3.1,13.9,4c5,1,10,1.8,15,2.4s9.8,1.1,14.6,1.3c4.7,0.2,8.8,0.3,12.5,0.3c16,0,30.6-2.1,43.8-6.4
	c12.6-3.9,24.3-10.5,34.1-19.4c9.6-8.9,17.1-19.8,21.9-32c5.1-12.7,7.7-27.5,7.7-44.6c0-17.5-2.7-32.6-8-45.4
	C265.8,44.4,258.1,33.5,248.2,24.8z M217.4,128.8c-2.1,6.5-5.6,12.5-10.2,17.4c-4.4,4.5-9.8,7.9-15.7,9.9c-6.4,2.2-13.2,3.3-20,3.2
	c-3,0-6.2-0.2-9.6-0.5s-6.3-0.7-8.6-1.2V46.4c3.2-0.4,6.3-0.8,9.4-1c3.1-0.2,6.1-0.3,9.1-0.3c14.9,0,26.9,4.9,35.8,14.6
	c9,9.7,13.4,24.2,13.4,43.4C221.1,113.1,219.9,121.7,217.4,128.8z"/>
<path class="st0" d="M466.7,158.1c-5.2-5.5-10.7-11.4-16.3-17.4c-5.7-6.1-11.4-12.3-17.3-18.7c-5.9-6.4-11.5-12.6-16.8-18.6l40-40
	c6.2-6.2,10.7-11.7,13.4-16.6c2.7-4.8,4.2-10.2,4.2-15.7c0-7.5-3.1-13.9-9.4-19.4s-16.7-8.2-31.2-8.2L366.7,80V29.1
	c0-5.5-0.6-10-1.9-13.4c-1.1-3.2-3.1-5.9-5.8-8c-2.8-2-6-3.4-9.4-4c-4.3-0.8-8.6-1.2-13-1.1c-4.9,0-9.8,0.4-14.7,1.2
	c-5.1,0.8-8.9,1.3-11.2,1.8v169c0,5.5,0.6,10,1.9,13.4c1.1,3.2,3.1,5.9,5.8,8c2.8,2,6,3.4,9.4,4c4.3,0.8,8.6,1.2,13,1.1
	c5,0,10-0.4,15-1c3.8-0.4,7.5-1,11.2-1.9v-70.8l45.1,52.5c4.8,5.7,10.2,10.9,16,15.5c5.5,4.4,12.7,6.6,21.4,6.6
	c3.9,0,7.8-0.6,11.5-1.9c3.6-1.3,6.9-3.2,9.8-5.8s5.2-5.7,6.9-9.3c1.8-3.9,2.6-8.2,2.6-12.5C476.5,168.4,471.9,163.6,466.7,158.1z"
	/>
</svg>
