<?xml version="1.0" encoding="utf-8"?>
<!-- Generator: Adobe Illustrator 21.1.0, SVG Export Plug-In . SVG Version: 6.00 Build 0)  -->
<svg version="1.1" id="Layer_1" xmlns="http://www.w3.org/2000/svg" xmlns:xlink="http://www.w3.org/1999/xlink" x="0px" y="0px"
	 viewBox="0 0 18 20" style="enable-background:new 0 0 18 20;" xml:space="preserve">
<style type="text/css">
	.st0{fill:url(#SVGID_1_);}
</style>
<linearGradient id="SVGID_1_" gradientUnits="userSpaceOnUse" x1="0" y1="11" x2="18" y2="11" gradientTransform="matrix(1 0 0 -1 0 21)">
	<stop  offset="0" style="stop-color:#FE2020"/>
	<stop  offset="1" style="stop-color:#FF4E4A"/>
</linearGradient>
<path class="st0" d="M11,9.5c1.4,0,2.5-1.1,2.5-2.5S12.4,4.5,11,4.5S8.5,5.6,8.5,7S9.6,9.5,11,9.5 M11,0c3.9,0,7,3.1,7,7
	c0,5.2-7,13-7,13S4,12.2,4,7C4,3.1,7.1,0,11,0 M2,7c0,4.5,5.1,10.7,6,11.8L7,20c0,0-7-7.8-7-13c0-3.2,2.1-5.8,5-6.7
	C3.2,1.9,2,4.3,2,7z"/>
</svg>
